<mxfile host="app.diagrams.net" modified="2022-03-03T00:39:37.885Z" agent="5.0 (Macintosh)" etag="2z7PadIogtZvfOI7FWTy" version="16.6.2" type="github">
  <diagram id="WTW-wr61s157aWdFh6uz" name="Page-1">
    <mxGraphModel dx="946" dy="553" grid="1" gridSize="10" guides="1" tooltips="1" connect="1" arrows="1" fold="1" page="1" pageScale="1" pageWidth="850" pageHeight="1100" math="0" shadow="0">
      <root>
        <mxCell id="0" />
        <mxCell id="1" parent="0" />
        <mxCell id="MzPbaQEt1DwDT9tqZYex-6" style="edgeStyle=orthogonalEdgeStyle;rounded=0;orthogonalLoop=1;jettySize=auto;html=1;exitX=0;exitY=0;exitDx=0;exitDy=57.5;exitPerimeter=0;entryX=0;entryY=0;entryDx=70;entryDy=80;entryPerimeter=0;" edge="1" parent="1" source="MzPbaQEt1DwDT9tqZYex-1" target="MzPbaQEt1DwDT9tqZYex-5">
          <mxGeometry relative="1" as="geometry">
            <Array as="points">
              <mxPoint x="323" y="290" />
              <mxPoint x="620" y="290" />
            </Array>
          </mxGeometry>
        </mxCell>
        <mxCell id="MzPbaQEt1DwDT9tqZYex-19" style="edgeStyle=orthogonalEdgeStyle;rounded=0;orthogonalLoop=1;jettySize=auto;html=1;exitX=1;exitY=0.5;exitDx=0;exitDy=0;exitPerimeter=0;startArrow=classic;startFill=1;endArrow=classic;endFill=1;" edge="1" parent="1" source="MzPbaQEt1DwDT9tqZYex-1" target="MzPbaQEt1DwDT9tqZYex-18">
          <mxGeometry relative="1" as="geometry" />
        </mxCell>
        <mxCell id="MzPbaQEt1DwDT9tqZYex-1" value="Message Queue" style="shape=cylinder3;whiteSpace=wrap;html=1;boundedLbl=1;backgroundOutline=1;size=15;direction=south;fillColor=#ffe6cc;strokeColor=#d79b00;" vertex="1" parent="1">
          <mxGeometry x="180" y="330" width="200" height="60" as="geometry" />
        </mxCell>
        <mxCell id="MzPbaQEt1DwDT9tqZYex-2" value="user" style="shape=umlActor;verticalLabelPosition=bottom;verticalAlign=top;html=1;outlineConnect=0;" vertex="1" parent="1">
          <mxGeometry x="60" y="60" width="30" height="60" as="geometry" />
        </mxCell>
        <mxCell id="MzPbaQEt1DwDT9tqZYex-7" style="edgeStyle=orthogonalEdgeStyle;rounded=0;orthogonalLoop=1;jettySize=auto;html=1;exitX=1;exitY=0.25;exitDx=0;exitDy=0;entryX=0;entryY=0;entryDx=50;entryDy=0;entryPerimeter=0;startArrow=classic;startFill=1;" edge="1" parent="1" source="MzPbaQEt1DwDT9tqZYex-3" target="MzPbaQEt1DwDT9tqZYex-5">
          <mxGeometry relative="1" as="geometry" />
        </mxCell>
        <mxCell id="MzPbaQEt1DwDT9tqZYex-9" style="edgeStyle=orthogonalEdgeStyle;rounded=0;orthogonalLoop=1;jettySize=auto;html=1;exitX=0.5;exitY=1;exitDx=0;exitDy=0;entryX=0.5;entryY=0;entryDx=0;entryDy=0;startArrow=none;startFill=0;" edge="1" parent="1" source="MzPbaQEt1DwDT9tqZYex-3" target="MzPbaQEt1DwDT9tqZYex-8">
          <mxGeometry relative="1" as="geometry" />
        </mxCell>
        <mxCell id="MzPbaQEt1DwDT9tqZYex-11" style="edgeStyle=orthogonalEdgeStyle;rounded=0;orthogonalLoop=1;jettySize=auto;html=1;exitX=1;exitY=0.75;exitDx=0;exitDy=0;entryX=0;entryY=0.385;entryDx=0;entryDy=0;entryPerimeter=0;startArrow=classic;startFill=1;endArrow=none;endFill=0;" edge="1" parent="1" source="MzPbaQEt1DwDT9tqZYex-3" target="MzPbaQEt1DwDT9tqZYex-1">
          <mxGeometry relative="1" as="geometry" />
        </mxCell>
        <mxCell id="MzPbaQEt1DwDT9tqZYex-3" value="client/extension" style="whiteSpace=wrap;html=1;aspect=fixed;fillColor=#d5e8d4;strokeColor=#82b366;" vertex="1" parent="1">
          <mxGeometry x="120" y="60" width="80" height="80" as="geometry" />
        </mxCell>
        <mxCell id="MzPbaQEt1DwDT9tqZYex-27" style="edgeStyle=orthogonalEdgeStyle;rounded=0;orthogonalLoop=1;jettySize=auto;html=1;exitX=0;exitY=0;exitDx=120;exitDy=50;exitPerimeter=0;dashed=1;dashPattern=1 1;startArrow=classic;startFill=1;endArrow=classic;endFill=1;strokeWidth=1;" edge="1" parent="1" source="MzPbaQEt1DwDT9tqZYex-5" target="MzPbaQEt1DwDT9tqZYex-26">
          <mxGeometry relative="1" as="geometry" />
        </mxCell>
        <mxCell id="MzPbaQEt1DwDT9tqZYex-5" value="Mailbox" style="shape=cube;whiteSpace=wrap;html=1;boundedLbl=1;backgroundOutline=1;darkOpacity=0.05;darkOpacity2=0.1;fillColor=#ffe6cc;strokeColor=#d79b00;" vertex="1" parent="1">
          <mxGeometry x="550" y="100" width="120" height="80" as="geometry" />
        </mxCell>
        <mxCell id="MzPbaQEt1DwDT9tqZYex-10" style="edgeStyle=orthogonalEdgeStyle;rounded=0;orthogonalLoop=1;jettySize=auto;html=1;exitX=0.5;exitY=1;exitDx=0;exitDy=0;startArrow=none;startFill=0;" edge="1" parent="1" source="MzPbaQEt1DwDT9tqZYex-8" target="MzPbaQEt1DwDT9tqZYex-1">
          <mxGeometry relative="1" as="geometry" />
        </mxCell>
        <mxCell id="MzPbaQEt1DwDT9tqZYex-8" value="Auth/ID Service" style="rounded=0;whiteSpace=wrap;html=1;fillColor=#f5f5f5;fontColor=#333333;strokeColor=#666666;" vertex="1" parent="1">
          <mxGeometry x="160" y="210" width="120" height="60" as="geometry" />
        </mxCell>
        <mxCell id="MzPbaQEt1DwDT9tqZYex-12" value="&lt;h1&gt;Client Update And Write&lt;br&gt;&lt;/h1&gt;&lt;div&gt;Client reserves space and id for update.&lt;/div&gt;&lt;div&gt;Authenticated by service&lt;/div&gt;&lt;div&gt;MQ allocates space and gets ready to commit messages&lt;/div&gt;&lt;div&gt;MQ leaves stats update in mailbox to let client see result.&lt;br&gt;&lt;/div&gt;" style="text;html=1;strokeColor=none;fillColor=none;spacing=5;spacingTop=-20;whiteSpace=wrap;overflow=hidden;rounded=0;" vertex="1" parent="1">
          <mxGeometry x="330" y="90" width="190" height="200" as="geometry" />
        </mxCell>
        <mxCell id="MzPbaQEt1DwDT9tqZYex-13" value="Data store with on disk Hashmap, AOF, and other metadata" style="shape=cylinder3;whiteSpace=wrap;html=1;boundedLbl=1;backgroundOutline=1;size=15;fillColor=#f8cecc;strokeColor=#b85450;" vertex="1" parent="1">
          <mxGeometry x="480" y="555" width="120" height="110" as="geometry" />
        </mxCell>
        <mxCell id="MzPbaQEt1DwDT9tqZYex-17" value="&lt;h1&gt;Data Store&lt;br&gt;&lt;/h1&gt;&lt;p&gt;Stores and Edits hashmap of the videos with their counts on disk&lt;/p&gt;&lt;p&gt;Uses AOF to commit transcations, then updates to in-memory buffer pages before eventually flushing to disk.&lt;br&gt;&lt;/p&gt;" style="text;html=1;strokeColor=none;fillColor=none;spacing=5;spacingTop=-20;whiteSpace=wrap;overflow=hidden;rounded=0;" vertex="1" parent="1">
          <mxGeometry x="630" y="500" width="190" height="210" as="geometry" />
        </mxCell>
        <mxCell id="MzPbaQEt1DwDT9tqZYex-20" style="edgeStyle=orthogonalEdgeStyle;rounded=0;orthogonalLoop=1;jettySize=auto;html=1;exitX=0.5;exitY=1;exitDx=0;exitDy=0;entryX=0;entryY=0.5;entryDx=0;entryDy=0;entryPerimeter=0;startArrow=classic;startFill=1;endArrow=classic;endFill=1;" edge="1" parent="1" source="MzPbaQEt1DwDT9tqZYex-18" target="MzPbaQEt1DwDT9tqZYex-13">
          <mxGeometry relative="1" as="geometry" />
        </mxCell>
        <mxCell id="MzPbaQEt1DwDT9tqZYex-25" style="edgeStyle=orthogonalEdgeStyle;rounded=0;orthogonalLoop=1;jettySize=auto;html=1;exitX=0.25;exitY=1;exitDx=0;exitDy=0;entryX=0.25;entryY=0;entryDx=0;entryDy=0;startArrow=classic;startFill=1;endArrow=classic;endFill=1;strokeWidth=5;dashed=1;dashPattern=1 1;" edge="1" parent="1" source="MzPbaQEt1DwDT9tqZYex-18" target="MzPbaQEt1DwDT9tqZYex-24">
          <mxGeometry relative="1" as="geometry" />
        </mxCell>
        <mxCell id="MzPbaQEt1DwDT9tqZYex-18" value="Database Server" style="rounded=0;whiteSpace=wrap;html=1;fillColor=#f8cecc;strokeColor=#b85450;" vertex="1" parent="1">
          <mxGeometry x="220" y="470" width="120" height="60" as="geometry" />
        </mxCell>
        <mxCell id="MzPbaQEt1DwDT9tqZYex-21" value="&lt;h1&gt;Main Service&lt;/h1&gt;&lt;div&gt;Serve reads from Data Store&lt;/div&gt;&lt;div&gt;&lt;br&gt;&lt;/div&gt;&lt;div&gt;Continuously pull messages and submit those actions to the store&lt;/div&gt;&lt;div&gt;&lt;br&gt;&lt;/div&gt;&lt;div&gt;Gossip with other regions to write latest counts &lt;br&gt;&lt;/div&gt;" style="text;html=1;strokeColor=none;fillColor=none;spacing=5;spacingTop=-20;whiteSpace=wrap;overflow=hidden;rounded=0;" vertex="1" parent="1">
          <mxGeometry x="20" y="450" width="190" height="200" as="geometry" />
        </mxCell>
        <mxCell id="MzPbaQEt1DwDT9tqZYex-24" value="Region To Region Gossip About Like/Dislike Counts" style="rounded=1;whiteSpace=wrap;html=1;fillColor=#e1d5e7;strokeColor=#9673a6;" vertex="1" parent="1">
          <mxGeometry x="30" y="700" width="790" height="60" as="geometry" />
        </mxCell>
        <mxCell id="MzPbaQEt1DwDT9tqZYex-26" value="Redis Data Store" style="shape=cylinder3;whiteSpace=wrap;html=1;boundedLbl=1;backgroundOutline=1;size=15;fillColor=#f8cecc;strokeColor=#b85450;" vertex="1" parent="1">
          <mxGeometry x="710" y="100" width="60" height="80" as="geometry" />
        </mxCell>
      </root>
    </mxGraphModel>
  </diagram>
</mxfile>
